<svg fill="#9CA3AF"  width="24px" height="24px" viewBox="0 0 24 24" xmlns="http://www.w3.org/2000/svg"><defs><style>.cls-1,.cls-2{fill:none;stroke:#9CA3AF;stroke-linecap:round;stroke-width:1.5px;}.cls-1{stroke-linejoin:round;}.cls-2{stroke-linejoin:bevel;}</style></defs><g id="ic-editor-color"><line class="cls-1" x1="8" y1="3" x2="18" y2="13"/><path class="cls-1" d="M9,4,2.41,10.59a2,2,0,0,0,0,2.82l5.22,5.22a2,2,0,0,0,2.78,0l6.83-6.43"/><line class="cls-1" x1="1.83" y1="12" x2="17" y2="12"/><line class="cls-1" x1="6" y1="12" x2="6" y2="17"/><line class="cls-1" x1="9" y1="12" x2="9" y2="19.21"/><line class="cls-1" x1="12" y1="12" x2="12" y2="17.17"/><path class="cls-2" d="M19.26,22.41h.54a2.54,2.54,0,0,0,1.89-3.75l-1.88-3.5a.32.32,0,0,0-.55,0l-1.89,3.5A2.54,2.54,0,0,0,19.26,22.41Z"/></g></svg>