<svg fill="#9CA3AF" version="1.1" id="Layer_1" xmlns="http://www.w3.org/2000/svg" xmlns:xlink="http://www.w3.org/1999/xlink" 
	 viewBox="0 0 512 512" xml:space="preserve">
<g>
	<g>
		<path d="M373.509,42.51C266.747-46.477,99.149,11.128,75.11,151.303c-11.45,66.768,13.291,132.909,65.576,175.095
			c20.223,16.318,31.822,41.369,31.822,68.731v33.392c0,27.618,22.469,50.088,50.088,50.088h16.696v16.696
			c0,9.221,7.475,16.696,16.696,16.696c9.221,0,16.696-7.475,16.696-16.696v-16.696h16.696c27.618,0,50.088-22.469,50.088-50.088
			v-33.392c0-0.001,0-0.003,0-0.004s0-0.003,0-0.004c0-27.299,11.687-52.419,32.065-68.919
			c43.285-35.045,68.109-87.005,68.109-142.554C439.642,128.984,415.538,77.541,373.509,42.51z M306.076,428.52
			c0,9.206-7.49,16.696-16.696,16.696h-66.784c-9.206,0-16.696-7.49-16.696-16.696v-16.696h100.176V428.52z M239.292,233.734
			h-16.696c-27.618,0-50.088-22.469-50.088-50.088V166.95h16.696c27.618,0,50.088,22.469,50.088,50.088V233.734z M350.523,300.25
			c-23.99,19.423-39.291,47.293-43.357,78.183h-34.482V267.126h16.696c46.031,0,83.48-37.449,83.48-83.48v-33.392
			c0-9.221-7.475-16.696-16.696-16.696h-33.392c-27.279,0-51.542,13.154-66.784,33.45c-15.243-20.296-39.505-33.45-66.784-33.45
			h-33.392c-9.221,0-16.696,7.475-16.696,16.696v33.392c0,46.031,37.449,83.48,83.48,83.48h16.696v111.306h-34.473
			c-4.044-30.931-19.277-58.747-43.166-78.022c-43.034-34.722-63.083-88.354-53.633-143.463
			C127.693,42.232,264.941-4.51,352.13,68.161c34.395,28.668,54.122,70.762,54.122,115.486
			C406.251,229.074,385.939,271.574,350.523,300.25z M272.684,233.734v-16.696c0-27.618,22.469-50.088,50.088-50.088h16.696v16.696
			c0,27.618-22.469,50.088-50.088,50.088H272.684z"/>
	</g>
</g>
</svg>